<svg width="1346" height="276" viewBox="0 0 1346 276" fill="none" xmlns="http://www.w3.org/2000/svg">
<path d="M347.53 146.6C355.257 148.247 361.463 152.11 366.15 158.19C370.837 164.143 373.18 170.983 373.18 178.71C373.18 189.857 369.253 198.723 361.4 205.31C353.673 211.77 342.843 215 328.91 215H266.78V81.62H326.82C340.373 81.62 350.95 84.7233 358.55 90.93C366.277 97.1367 370.14 105.56 370.14 116.2C370.14 124.053 368.05 130.577 363.87 135.77C359.817 140.963 354.37 144.573 347.53 146.6ZM299.27 135.58H320.55C325.87 135.58 329.923 134.44 332.71 132.16C335.623 129.753 337.08 126.27 337.08 121.71C337.08 117.15 335.623 113.667 332.71 111.26C329.923 108.853 325.87 107.65 320.55 107.65H299.27V135.58ZM323.21 188.78C328.657 188.78 332.837 187.577 335.75 185.17C338.79 182.637 340.31 179.027 340.31 174.34C340.31 169.653 338.727 165.98 335.56 163.32C332.52 160.66 328.277 159.33 322.83 159.33H299.27V188.78H323.21ZM440.284 216.52C429.897 216.52 420.524 214.303 412.164 209.87C403.931 205.437 397.407 199.103 392.594 190.87C387.907 182.637 385.564 173.01 385.564 161.99C385.564 151.097 387.971 141.533 392.784 133.3C397.597 124.94 404.184 118.543 412.544 114.11C420.904 109.677 430.277 107.46 440.664 107.46C451.051 107.46 460.424 109.677 468.784 114.11C477.144 118.543 483.731 124.94 488.544 133.3C493.357 141.533 495.764 151.097 495.764 161.99C495.764 172.883 493.294 182.51 488.354 190.87C483.541 199.103 476.891 205.437 468.404 209.87C460.044 214.303 450.671 216.52 440.284 216.52ZM440.284 188.4C446.491 188.4 451.747 186.12 456.054 181.56C460.487 177 462.704 170.477 462.704 161.99C462.704 153.503 460.551 146.98 456.244 142.42C452.064 137.86 446.871 135.58 440.664 135.58C434.331 135.58 429.074 137.86 424.894 142.42C420.714 146.853 418.624 153.377 418.624 161.99C418.624 170.477 420.651 177 424.704 181.56C428.884 186.12 434.077 188.4 440.284 188.4ZM561.261 216.52C550.874 216.52 541.501 214.303 533.141 209.87C524.907 205.437 518.384 199.103 513.571 190.87C508.884 182.637 506.541 173.01 506.541 161.99C506.541 151.097 508.947 141.533 513.761 133.3C518.574 124.94 525.161 118.543 533.521 114.11C541.881 109.677 551.254 107.46 561.641 107.46C572.027 107.46 581.401 109.677 589.761 114.11C598.121 118.543 604.707 124.94 609.521 133.3C614.334 141.533 616.741 151.097 616.741 161.99C616.741 172.883 614.271 182.51 609.331 190.87C604.517 199.103 597.867 205.437 589.381 209.87C581.021 214.303 571.647 216.52 561.261 216.52ZM561.261 188.4C567.467 188.4 572.724 186.12 577.031 181.56C581.464 177 583.681 170.477 583.681 161.99C583.681 153.503 581.527 146.98 577.221 142.42C573.041 137.86 567.847 135.58 561.641 135.58C555.307 135.58 550.051 137.86 545.871 142.42C541.691 146.853 539.601 153.377 539.601 161.99C539.601 170.477 541.627 177 545.681 181.56C549.861 186.12 555.054 188.4 561.261 188.4ZM677.107 216.52C667.861 216.52 659.627 214.937 652.407 211.77C645.187 208.603 639.487 204.297 635.307 198.85C631.127 193.277 628.784 187.07 628.277 180.23H660.387C660.767 183.903 662.477 186.88 665.517 189.16C668.557 191.44 672.294 192.58 676.727 192.58C680.781 192.58 683.884 191.82 686.037 190.3C688.317 188.653 689.457 186.563 689.457 184.03C689.457 180.99 687.874 178.773 684.707 177.38C681.541 175.86 676.411 174.213 669.317 172.44C661.717 170.667 655.384 168.83 650.317 166.93C645.251 164.903 640.881 161.8 637.207 157.62C633.534 153.313 631.697 147.55 631.697 140.33C631.697 134.25 633.344 128.74 636.637 123.8C640.057 118.733 644.997 114.743 651.457 111.83C658.044 108.917 665.834 107.46 674.827 107.46C688.127 107.46 698.577 110.753 706.177 117.34C713.904 123.927 718.337 132.667 719.477 143.56H689.457C688.951 139.887 687.304 136.973 684.517 134.82C681.857 132.667 678.311 131.59 673.877 131.59C670.077 131.59 667.164 132.35 665.137 133.87C663.111 135.263 662.097 137.227 662.097 139.76C662.097 142.8 663.681 145.08 666.847 146.6C670.141 148.12 675.207 149.64 682.047 151.16C689.901 153.187 696.297 155.213 701.237 157.24C706.177 159.14 710.484 162.307 714.157 166.74C717.957 171.047 719.921 176.873 720.047 184.22C720.047 190.427 718.274 196 714.727 200.94C711.307 205.753 706.304 209.553 699.717 212.34C693.257 215.127 685.721 216.52 677.107 216.52ZM799.015 187.45V215H782.485C770.705 215 761.521 212.15 754.935 206.45C748.348 200.623 745.055 191.187 745.055 178.14V135.96H732.135V108.98H745.055V83.14H777.545V108.98H798.825V135.96H777.545V178.52C777.545 181.687 778.305 183.967 779.825 185.36C781.345 186.753 783.878 187.45 787.425 187.45H799.015ZM903.942 81.62V107.65H849.602V135.77H890.262V161.04H849.602V215H817.112V81.62H903.942ZM1025.71 108.98V215H993.218V200.56C989.925 205.247 985.428 209.047 979.728 211.96C974.155 214.747 967.948 216.14 961.108 216.14C953.002 216.14 945.845 214.367 939.638 210.82C933.432 207.147 928.618 201.89 925.198 195.05C921.778 188.21 920.068 180.167 920.068 170.92V108.98H952.368V166.55C952.368 173.643 954.205 179.153 957.878 183.08C961.552 187.007 966.492 188.97 972.698 188.97C979.032 188.97 984.035 187.007 987.708 183.08C991.382 179.153 993.218 173.643 993.218 166.55V108.98H1025.71ZM1081.54 126.65C1085.34 120.823 1090.09 116.263 1095.79 112.97C1101.49 109.55 1107.82 107.84 1114.79 107.84V142.23H1105.86C1097.75 142.23 1091.67 144.003 1087.62 147.55C1083.56 150.97 1081.54 157.05 1081.54 165.79V215H1049.05V108.98H1081.54V126.65ZM1238.62 108.98L1172.12 265.35H1137.16L1161.48 211.39L1118.35 108.98H1154.64L1179.15 175.29L1203.47 108.98H1238.62Z" fill="#303030"/>
<path d="M127.667 170.527V192.015C127.667 209.921 120.167 217.083 101.417 217.083H78.917C60.167 217.083 52.667 209.921 52.667 192.015V170.527C52.667 152.621 60.167 145.458 78.917 145.458H101.417C120.167 145.458 127.667 152.621 127.667 170.527Z" fill="#4F46E5"/>
<path d="M169.333 62H103C77.5833 62 57 81.6571 57 105.93V129.646C57 134.023 60.75 137.604 65.3333 137.604H102.833C121.25 137.604 136.167 151.85 136.167 169.438V205.25C136.167 209.627 139.917 213.208 144.5 213.208H169.333C198.083 213.208 215.333 196.814 215.333 169.278V105.93C215.333 81.6571 194.75 62 169.333 62ZM188.333 125.587C188.333 128.85 185.5 131.556 182.083 131.556C178.667 131.556 175.833 128.85 175.833 125.587V108.079L144.75 137.843C143.5 139.037 141.917 139.594 140.333 139.594C138.75 139.594 137.167 139.037 135.917 137.843C133.5 135.535 133.5 131.715 135.917 129.407L167 99.5633H148.667C145.167 99.5633 142.417 96.9371 142.417 93.5946C142.417 90.3317 145.167 87.6258 148.667 87.6258H182.083C182.833 87.6258 183.583 87.8646 184.25 88.1033C184.5 88.1829 184.667 88.2625 184.833 88.3421C185.333 88.5808 185.75 88.8196 186.167 89.2175C186.333 89.2971 186.5 89.4563 186.667 89.6154C187.083 90.0929 187.417 90.5704 187.75 91.1275C187.75 91.2071 187.833 91.2867 187.833 91.3663C188.167 92.0029 188.25 92.7192 188.25 93.4354C188.333 93.515 188.333 93.515 188.333 93.5946V125.587Z" fill="url(#paint0_linear_156_2)"/>
<defs>
<linearGradient id="paint0_linear_156_2" x1="136.167" y1="62" x2="136.167" y2="213.208" gradientUnits="userSpaceOnUse">
<stop stop-color="#8A41CB"/>
<stop offset="1" stop-color="#153885"/>
</linearGradient>
</defs>
</svg>
