<svg width="223" height="48" viewBox="0 0 223 48" fill="none" xmlns="http://www.w3.org/2000/svg">
<path d="M61.396 37.51C60.308 37.51 59.288 37.34 58.336 37C57.4067 36.66 56.602 36.1613 55.922 35.504V37H49.36V11.874H56.16V21.87C56.772 21.3487 57.5427 20.9407 58.472 20.646C59.4013 20.3287 60.376 20.17 61.396 20.17C63.1187 20.17 64.6373 20.5327 65.952 21.258C67.2667 21.9833 68.2753 23.0147 68.978 24.352C69.7033 25.6667 70.066 27.174 70.066 28.874C70.066 30.5967 69.7033 32.1153 68.978 33.43C68.2753 34.722 67.2667 35.7307 65.952 36.456C64.6373 37.1587 63.1187 37.51 61.396 37.51ZM59.56 32.24C60.6253 32.24 61.464 31.9453 62.076 31.356C62.7107 30.7667 63.028 29.9393 63.028 28.874C63.028 27.8087 62.7107 26.9813 62.076 26.392C61.464 25.78 60.6253 25.474 59.56 25.474C58.7893 25.474 58.098 25.6553 57.486 26.018C56.8967 26.3807 56.4547 26.8793 56.16 27.514V30.2C56.4547 30.8347 56.8967 31.3333 57.486 31.696C58.098 32.0587 58.7893 32.24 59.56 32.24ZM80.8629 37.51C78.7775 37.51 76.9529 37.1473 75.3889 36.422C73.8475 35.674 72.6575 34.6427 71.8189 33.328C70.9802 32.0133 70.5609 30.5173 70.5609 28.84C70.5609 27.1853 70.9802 25.7007 71.8189 24.386C72.6575 23.0713 73.8475 22.04 75.3889 21.292C76.9529 20.544 78.7775 20.17 80.8629 20.17C82.9482 20.17 84.7729 20.544 86.3369 21.292C87.9009 22.04 89.1022 23.0713 89.9409 24.386C90.7795 25.7007 91.1989 27.1853 91.1989 28.84C91.1989 30.5173 90.7795 32.0133 89.9409 33.328C89.1022 34.6427 87.9009 35.674 86.3369 36.422C84.7729 37.1473 82.9482 37.51 80.8629 37.51ZM80.8629 32.24C81.8829 32.24 82.6989 31.934 83.3109 31.322C83.9229 30.71 84.2289 29.8827 84.2289 28.84C84.2289 27.7973 83.9229 26.9813 83.3109 26.392C82.6989 25.78 81.8829 25.474 80.8629 25.474C79.8429 25.474 79.0269 25.78 78.4149 26.392C77.8255 26.9813 77.5309 27.7973 77.5309 28.84C77.5309 29.8827 77.8255 30.71 78.4149 31.322C79.0269 31.934 79.8429 32.24 80.8629 32.24ZM102.013 37.51C99.9279 37.51 98.1033 37.1473 96.5393 36.422C94.9979 35.674 93.8079 34.6427 92.9693 33.328C92.1306 32.0133 91.7113 30.5173 91.7113 28.84C91.7113 27.1853 92.1306 25.7007 92.9693 24.386C93.8079 23.0713 94.9979 22.04 96.5393 21.292C98.1033 20.544 99.9279 20.17 102.013 20.17C104.099 20.17 105.923 20.544 107.487 21.292C109.051 22.04 110.253 23.0713 111.091 24.386C111.93 25.7007 112.349 27.1853 112.349 28.84C112.349 30.5173 111.93 32.0133 111.091 33.328C110.253 34.6427 109.051 35.674 107.487 36.422C105.923 37.1473 104.099 37.51 102.013 37.51ZM102.013 32.24C103.033 32.24 103.849 31.934 104.461 31.322C105.073 30.71 105.379 29.8827 105.379 28.84C105.379 27.7973 105.073 26.9813 104.461 26.392C103.849 25.78 103.033 25.474 102.013 25.474C100.993 25.474 100.177 25.78 99.5653 26.392C98.9759 26.9813 98.6813 27.7973 98.6813 28.84C98.6813 29.8827 98.9759 30.71 99.5653 31.322C100.177 31.934 100.993 32.24 102.013 32.24ZM120.886 37.51C119.526 37.51 118.098 37.3853 116.602 37.136C115.128 36.8867 113.961 36.524 113.1 36.048V31.254C114.029 31.798 115.162 32.2627 116.5 32.648C117.86 33.0107 119.084 33.192 120.172 33.192C120.829 33.192 121.305 33.158 121.6 33.09C121.894 32.9993 122.042 32.8293 122.042 32.58C122.042 32.3533 121.894 32.1833 121.6 32.07C121.328 31.9567 120.806 31.798 120.036 31.594L118.472 31.152C117.089 30.744 115.99 30.3133 115.174 29.86C114.38 29.384 113.791 28.8173 113.406 28.16C113.043 27.48 112.862 26.63 112.862 25.61C112.862 23.774 113.587 22.414 115.038 21.53C116.488 20.6233 118.472 20.17 120.988 20.17C122.189 20.17 123.481 20.306 124.864 20.578C126.269 20.8273 127.312 21.1673 127.992 21.598V26.324C127.289 25.8707 126.348 25.4853 125.17 25.168C123.991 24.828 122.914 24.658 121.94 24.658C120.602 24.658 119.934 24.8847 119.934 25.338C119.934 25.542 120.092 25.712 120.41 25.848C120.75 25.984 121.328 26.1427 122.144 26.324L123.572 26.664C125.045 27.0493 126.178 27.4913 126.972 27.99C127.765 28.4887 128.32 29.078 128.638 29.758C128.955 30.4153 129.114 31.2427 129.114 32.24C129.114 33.8493 128.4 35.13 126.972 36.082C125.566 37.034 123.538 37.51 120.886 37.51ZM137.951 37.51C135.843 37.51 134.245 36.9207 133.157 35.742C132.069 34.5633 131.525 32.9653 131.525 30.948V25.27H129.281V20.68H131.525V15.784H138.359V20.68H141.997V25.27H138.359V29.962C138.359 30.778 138.507 31.3673 138.801 31.73C139.119 32.07 139.64 32.24 140.365 32.24C141.181 32.24 141.963 32.0247 142.711 31.594V36.626C142.054 36.9207 141.363 37.136 140.637 37.272C139.935 37.4307 139.039 37.51 137.951 37.51ZM144.28 24.828H142.002V20.68H144.28V18.64C144.28 16.4413 144.971 14.7413 146.354 13.54C147.759 12.316 149.573 11.704 151.794 11.704C153.041 11.704 154.129 11.908 155.058 12.316V17.076C154.423 16.7587 153.709 16.6 152.916 16.6C152.009 16.6 151.341 16.804 150.91 17.212C150.479 17.62 150.264 18.266 150.264 19.15V20.68H154.038V24.828H150.264V37H144.28V24.828ZM161.011 37.51C158.745 37.51 157.045 36.8753 155.911 35.606C154.778 34.3367 154.211 32.6593 154.211 30.574V20.68H161.011V29.758C161.011 31.4127 161.737 32.24 163.187 32.24C163.845 32.24 164.434 32.0813 164.955 31.764C165.477 31.4467 165.896 30.9933 166.213 30.404V20.68H173.047V37H166.451V35.436C165.771 36.116 164.955 36.6373 164.003 37C163.051 37.34 162.054 37.51 161.011 37.51ZM175.764 20.68H182.326V22.448C182.961 21.7907 183.834 21.2693 184.944 20.884C186.078 20.4987 187.313 20.306 188.65 20.306V25.576C187.222 25.576 185.953 25.7687 184.842 26.154C183.732 26.5393 182.972 27.106 182.564 27.854V37H175.764V20.68ZM195.086 43.732C194.293 43.732 193.466 43.6753 192.604 43.562C191.743 43.4487 191.108 43.29 190.7 43.086V38.054C191.403 38.326 192.174 38.462 193.012 38.462C193.738 38.462 194.293 38.3033 194.678 37.986C195.064 37.6913 195.37 37.238 195.596 36.626L195.902 35.844L188.83 20.68H195.63L199.506 30.642L203.144 20.68H209.978L203.45 37.374C202.589 39.55 201.501 41.148 200.186 42.168C198.872 43.2107 197.172 43.732 195.086 43.732Z" fill="black"/>
<path d="M23.1665 32.9354V37.7729C23.1665 41.8042 21.5165 43.4167 17.3915 43.4167H12.4415C8.3165 43.4167 6.6665 41.8042 6.6665 37.7729V32.9354C6.6665 28.9042 8.3165 27.2917 12.4415 27.2917H17.3915C21.5165 27.2917 23.1665 28.9042 23.1665 32.9354Z" fill="#484848"/>
<path d="M33.2133 7.58331H18.62C13.0283 7.58331 8.5 12.0087 8.5 17.4733V22.8125C8.5 23.7979 9.325 24.6041 10.3333 24.6041H18.5833C22.635 24.6041 25.9167 27.8112 25.9167 31.7708V39.8333C25.9167 40.8187 26.7417 41.625 27.75 41.625H33.2133C39.5383 41.625 43.3333 37.9341 43.3333 31.735V17.4733C43.3333 12.0087 38.805 7.58331 33.2133 7.58331ZM37.3933 21.8987C37.3933 22.6333 36.77 23.2425 36.0183 23.2425C35.2667 23.2425 34.6433 22.6333 34.6433 21.8987V17.9571L27.805 24.6579C27.53 24.9266 27.1817 25.0521 26.8333 25.0521C26.485 25.0521 26.1367 24.9266 25.8617 24.6579C25.33 24.1383 25.33 23.2783 25.8617 22.7587L32.7 16.04H28.6667C27.8967 16.04 27.2917 15.4487 27.2917 14.6962C27.2917 13.9616 27.8967 13.3525 28.6667 13.3525H36.0183C36.1833 13.3525 36.3483 13.4062 36.495 13.46C36.55 13.4779 36.5867 13.4958 36.6233 13.5137C36.7333 13.5675 36.825 13.6212 36.9167 13.7108C36.9533 13.7287 36.99 13.7646 37.0267 13.8004C37.1183 13.9079 37.1917 14.0154 37.265 14.1408C37.265 14.1587 37.2833 14.1766 37.2833 14.1946C37.3567 14.3379 37.375 14.4991 37.375 14.6604C37.3933 14.6783 37.3933 14.6783 37.3933 14.6962V21.8987Z" fill="black"/>
</svg>
