<svg width="200" height="48" viewBox="0 0 200 48" fill="none" xmlns="http://www.w3.org/2000/svg">
<g clip-path="url(#clip0_97_6)">
<path d="M49.12 17.428H59.34C61.244 17.428 62.7653 17.904 63.904 18.856C65.0613 19.7893 65.64 21.1333 65.64 22.888C65.64 23.672 65.4627 24.4093 65.108 25.1C64.772 25.7907 64.2773 26.3507 63.624 26.78C64.5387 27.1907 65.2013 27.732 65.612 28.404C66.0413 29.076 66.256 29.9533 66.256 31.036C66.256 32.2493 65.9667 33.3133 65.388 34.228C64.8093 35.124 64.0253 35.8147 63.036 36.3C62.0653 36.7667 60.9827 37 59.788 37H49.12V17.428ZM57.828 25.016C58.4627 25.016 58.9387 24.876 59.256 24.596C59.592 24.316 59.76 23.868 59.76 23.252C59.76 22.6173 59.6013 22.1787 59.284 21.936C58.9667 21.6747 58.472 21.544 57.8 21.544H54.916V25.016H57.828ZM58.164 32.884C58.9293 32.884 59.4893 32.744 59.844 32.464C60.1987 32.184 60.376 31.6987 60.376 31.008C60.376 30.336 60.1893 29.8413 59.816 29.524C59.4613 29.2067 58.892 29.048 58.108 29.048H54.916V32.884H58.164ZM75.8565 37.42C74.1392 37.42 72.6365 37.1213 71.3485 36.524C70.0792 35.908 69.0992 35.0587 68.4085 33.976C67.7178 32.8933 67.3725 31.6613 67.3725 30.28C67.3725 28.9173 67.7178 27.6947 68.4085 26.612C69.0992 25.5293 70.0792 24.68 71.3485 24.064C72.6365 23.448 74.1392 23.14 75.8565 23.14C77.5738 23.14 79.0765 23.448 80.3645 24.064C81.6525 24.68 82.6418 25.5293 83.3325 26.612C84.0232 27.6947 84.3685 28.9173 84.3685 30.28C84.3685 31.6613 84.0232 32.8933 83.3325 33.976C82.6418 35.0587 81.6525 35.908 80.3645 36.524C79.0765 37.1213 77.5738 37.42 75.8565 37.42ZM75.8565 33.08C76.6965 33.08 77.3685 32.828 77.8725 32.324C78.3765 31.82 78.6285 31.1387 78.6285 30.28C78.6285 29.4213 78.3765 28.7493 77.8725 28.264C77.3685 27.76 76.6965 27.508 75.8565 27.508C75.0165 27.508 74.3445 27.76 73.8405 28.264C73.3552 28.7493 73.1125 29.4213 73.1125 30.28C73.1125 31.1387 73.3552 31.82 73.8405 32.324C74.3445 32.828 75.0165 33.08 75.8565 33.08ZM93.2745 37.42C91.5571 37.42 90.0545 37.1213 88.7665 36.524C87.4971 35.908 86.5171 35.0587 85.8265 33.976C85.1358 32.8933 84.7905 31.6613 84.7905 30.28C84.7905 28.9173 85.1358 27.6947 85.8265 26.612C86.5171 25.5293 87.4971 24.68 88.7665 24.064C90.0545 23.448 91.5571 23.14 93.2745 23.14C94.9918 23.14 96.4945 23.448 97.7825 24.064C99.0705 24.68 100.06 25.5293 100.75 26.612C101.441 27.6947 101.786 28.9173 101.786 30.28C101.786 31.6613 101.441 32.8933 100.75 33.976C100.06 35.0587 99.0705 35.908 97.7825 36.524C96.4945 37.1213 94.9918 37.42 93.2745 37.42ZM93.2745 33.08C94.1145 33.08 94.7865 32.828 95.2905 32.324C95.7945 31.82 96.0465 31.1387 96.0465 30.28C96.0465 29.4213 95.7945 28.7493 95.2905 28.264C94.7865 27.76 94.1145 27.508 93.2745 27.508C92.4345 27.508 91.7625 27.76 91.2585 28.264C90.7731 28.7493 90.5305 29.4213 90.5305 30.28C90.5305 31.1387 90.7731 31.82 91.2585 32.324C91.7625 32.828 92.4345 33.08 93.2745 33.08ZM108.816 37.42C107.696 37.42 106.52 37.3173 105.288 37.112C104.075 36.9067 103.114 36.608 102.404 36.216V32.268C103.17 32.716 104.103 33.0987 105.204 33.416C106.324 33.7147 107.332 33.864 108.228 33.864C108.77 33.864 109.162 33.836 109.404 33.78C109.647 33.7053 109.768 33.5653 109.768 33.36C109.768 33.1733 109.647 33.0333 109.404 32.94C109.18 32.8467 108.751 32.716 108.116 32.548L106.828 32.184C105.69 31.848 104.784 31.4933 104.112 31.12C103.459 30.728 102.974 30.2613 102.656 29.72C102.358 29.16 102.208 28.46 102.208 27.62C102.208 26.108 102.806 24.988 104 24.26C105.195 23.5133 106.828 23.14 108.9 23.14C109.89 23.14 110.954 23.252 112.092 23.476C113.25 23.6813 114.108 23.9613 114.668 24.316V28.208C114.09 27.8347 113.315 27.5173 112.344 27.256C111.374 26.976 110.487 26.836 109.684 26.836C108.583 26.836 108.032 27.0227 108.032 27.396C108.032 27.564 108.163 27.704 108.424 27.816C108.704 27.928 109.18 28.0587 109.852 28.208L111.028 28.488C112.242 28.8053 113.175 29.1693 113.828 29.58C114.482 29.9907 114.939 30.476 115.2 31.036C115.462 31.5773 115.592 32.2587 115.592 33.08C115.592 34.4053 115.004 35.46 113.828 36.244C112.671 37.028 111 37.42 108.816 37.42ZM122.87 37.42C121.134 37.42 119.818 36.9347 118.922 35.964C118.026 34.9933 117.578 33.6773 117.578 32.016V27.34H115.73V23.56H117.578V19.528H123.206V23.56H126.202V27.34H123.206V31.204C123.206 31.876 123.328 32.3613 123.57 32.66C123.832 32.94 124.261 33.08 124.858 33.08C125.53 33.08 126.174 32.9027 126.79 32.548V36.692C126.249 36.9347 125.68 37.112 125.082 37.224C124.504 37.3547 123.766 37.42 122.87 37.42Z" fill="black"/>
<path d="M130.12 17.428H144.316V22.3H135.916V24.988H141.964V29.44H135.916V37H130.12V17.428ZM148.514 37.42C146.647 37.42 145.247 36.8973 144.314 35.852C143.38 34.8067 142.914 33.4253 142.914 31.708V23.56H148.514V31.036C148.514 32.3987 149.111 33.08 150.306 33.08C150.847 33.08 151.332 32.9493 151.762 32.688C152.191 32.4267 152.536 32.0533 152.798 31.568V23.56H158.426V37H152.994V35.712C152.434 36.272 151.762 36.7013 150.978 37C150.194 37.28 149.372 37.42 148.514 37.42ZM160.663 23.56H166.067V25.016C166.59 24.4747 167.308 24.0453 168.223 23.728C169.156 23.4107 170.174 23.252 171.275 23.252V27.592C170.099 27.592 169.054 27.7507 168.139 28.068C167.224 28.3853 166.599 28.852 166.263 29.468V37H160.663V23.56ZM176.575 42.544C175.922 42.544 175.241 42.4973 174.531 42.404C173.822 42.3107 173.299 42.18 172.963 42.012V37.868C173.542 38.092 174.177 38.204 174.867 38.204C175.465 38.204 175.922 38.0733 176.239 37.812C176.557 37.5693 176.809 37.196 176.995 36.692L177.247 36.048L171.423 23.56H177.023L180.215 31.764L183.211 23.56H188.839L183.463 37.308C182.754 39.1 181.858 40.416 180.775 41.256C179.693 42.1147 178.293 42.544 176.575 42.544Z" fill="#4F46E5"/>
<path d="M23.1665 32.9354V37.7729C23.1665 41.8042 21.5165 43.4167 17.3915 43.4167H12.4415C8.3165 43.4167 6.6665 41.8042 6.6665 37.7729V32.9354C6.6665 28.9042 8.3165 27.2917 12.4415 27.2917H17.3915C21.5165 27.2917 23.1665 28.9042 23.1665 32.9354Z" fill="#4F46E5"/>
<path d="M33.2133 7.58331H18.62C13.0283 7.58331 8.5 12.0087 8.5 17.4733V22.8125C8.5 23.7979 9.325 24.6041 10.3333 24.6041H18.5833C22.635 24.6041 25.9167 27.8112 25.9167 31.7708V39.8333C25.9167 40.8187 26.7417 41.625 27.75 41.625H33.2133C39.5383 41.625 43.3333 37.9341 43.3333 31.735V17.4733C43.3333 12.0087 38.805 7.58331 33.2133 7.58331ZM37.3933 21.8987C37.3933 22.6333 36.77 23.2425 36.0183 23.2425C35.2667 23.2425 34.6433 22.6333 34.6433 21.8987V17.9571L27.805 24.6579C27.53 24.9266 27.1817 25.0521 26.8333 25.0521C26.485 25.0521 26.1367 24.9266 25.8617 24.6579C25.33 24.1383 25.33 23.2783 25.8617 22.7587L32.7 16.04H28.6667C27.8967 16.04 27.2917 15.4487 27.2917 14.6962C27.2917 13.9616 27.8967 13.3525 28.6667 13.3525H36.0183C36.1833 13.3525 36.3483 13.4062 36.495 13.46C36.55 13.4779 36.5867 13.4958 36.6233 13.5137C36.7333 13.5675 36.825 13.6212 36.9167 13.7108C36.9533 13.7287 36.99 13.7646 37.0267 13.8004C37.1183 13.9079 37.1917 14.0154 37.265 14.1408C37.265 14.1587 37.2833 14.1766 37.2833 14.1946C37.3567 14.3379 37.375 14.4991 37.375 14.6604C37.3933 14.6783 37.3933 14.6783 37.3933 14.6962V21.8987Z" fill="url(#paint0_linear_97_6)"/>
</g>
<defs>
<linearGradient id="paint0_linear_97_6" x1="25.9167" y1="7.58331" x2="25.9167" y2="41.625" gradientUnits="userSpaceOnUse">
<stop stop-color="#2563EB"/>
<stop offset="1" stop-color="#4F46E5"/>
</linearGradient>
<clipPath id="clip0_97_6">
<rect width="200" height="48" rx="10" fill="white"/>
</clipPath>
</defs>
</svg>
