<svg width="200" height="191" viewBox="0 0 200 191" fill="none" xmlns="http://www.w3.org/2000/svg">
<path d="M91.6665 128.527V150.015C91.6665 167.921 84.1665 175.083 65.4165 175.083H42.9165C24.1665 175.083 16.6665 167.921 16.6665 150.015V128.527C16.6665 110.621 24.1665 103.458 42.9165 103.458H65.4165C84.1665 103.458 91.6665 110.621 91.6665 128.527Z" fill="#92C8FF"/>
<path d="M133.333 20H67C41.5833 20 21 39.6571 21 63.93V87.6458C21 92.0229 24.75 95.6042 29.3333 95.6042H66.8333C85.25 95.6042 100.167 109.85 100.167 127.438V163.25C100.167 167.627 103.917 171.208 108.5 171.208H133.333C162.083 171.208 179.333 154.814 179.333 127.278V63.93C179.333 39.6571 158.75 20 133.333 20ZM152.333 83.5871C152.333 86.85 149.5 89.5558 146.083 89.5558C142.667 89.5558 139.833 86.85 139.833 83.5871V66.0788L108.75 95.8429C107.5 97.0367 105.917 97.5938 104.333 97.5938C102.75 97.5938 101.167 97.0367 99.9167 95.8429C97.5 93.535 97.5 89.715 99.9167 87.4071L131 57.5633H112.667C109.167 57.5633 106.417 54.9371 106.417 51.5946C106.417 48.3317 109.167 45.6258 112.667 45.6258H146.083C146.833 45.6258 147.583 45.8646 148.25 46.1033C148.5 46.1829 148.667 46.2625 148.833 46.3421C149.333 46.5808 149.75 46.8196 150.167 47.2175C150.333 47.2971 150.5 47.4563 150.667 47.6154C151.083 48.0929 151.417 48.5704 151.75 49.1275C151.75 49.2071 151.833 49.2867 151.833 49.3663C152.167 50.0029 152.25 50.7192 152.25 51.4354C152.333 51.515 152.333 51.515 152.333 51.5946V83.5871Z" fill="#0A66C2"/>
</svg>
