<svg width="36" height="35" viewBox="0 0 36 35" fill="none" xmlns="http://www.w3.org/2000/svg">
<path d="M25.2133 0.583313H10.62C5.02833 0.583313 0.5 5.00873 0.5 10.4733V15.8125C0.5 16.7979 1.325 17.6041 2.33333 17.6041H10.5833C14.635 17.6041 17.9167 20.8112 17.9167 24.7708V32.8333C17.9167 33.8187 18.7417 34.625 19.75 34.625H25.2133C31.5383 34.625 35.3333 30.9341 35.3333 24.735V10.4733C35.3333 5.00873 30.805 0.583313 25.2133 0.583313ZM29.3933 14.8987C29.3933 15.6333 28.77 16.2425 28.0183 16.2425C27.2667 16.2425 26.6433 15.6333 26.6433 14.8987V10.9571L19.805 17.6579C19.53 17.9266 19.1817 18.0521 18.8333 18.0521C18.485 18.0521 18.1367 17.9266 17.8617 17.6579C17.33 17.1383 17.33 16.2783 17.8617 15.7587L24.7 9.03998H20.6667C19.8967 9.03998 19.2917 8.44873 19.2917 7.69623C19.2917 6.96165 19.8967 6.35248 20.6667 6.35248H28.0183C28.1833 6.35248 28.3483 6.40623 28.495 6.45998C28.55 6.4779 28.5867 6.49581 28.6233 6.51373C28.7333 6.56748 28.825 6.62123 28.9167 6.71081C28.9533 6.72873 28.99 6.76456 29.0267 6.8004C29.1183 6.9079 29.1917 7.0154 29.265 7.14081C29.265 7.15873 29.2833 7.17665 29.2833 7.19456C29.3567 7.3379 29.375 7.49915 29.375 7.6604C29.3933 7.67831 29.3933 7.67831 29.3933 7.69623V14.8987Z" fill="url(#paint0_linear_97_10)"/>
<defs>
<linearGradient id="paint0_linear_97_10" x1="17.9167" y1="0.583313" x2="17.9167" y2="34.625" gradientUnits="userSpaceOnUse">
<stop stop-color="#2563EB"/>
<stop offset="1" stop-color="#4F46E5"/>
</linearGradient>
</defs>
</svg>
